<?xml version="1.0" encoding="UTF-8"?>
<svg id="_图层_1" data-name="图层 1" xmlns="http://www.w3.org/2000/svg" viewBox="0 0 346.47 289">
  <defs>
    <style>
      .cls-1 {
        fill: #004688;
      }

      .cls-2 {
        fill: #003685;
      }
    </style>
  </defs>
  <path class="cls-2" d="M346.27,153c-.05,2.99-.47,5.94-.88,8.9-.53,3.83-1.28,7.61-2.19,11.36-2.54,10.45-6.4,20.38-11.45,29.84-5.8,10.86-12.96,20.71-21.29,29.69-10.74,11.58-22.97,21.26-36.45,29.32-14.05,8.41-28.97,14.74-44.65,19.25-6.45,1.85-12.97,3.36-19.57,4.55-3.82,.69-7.65,1.26-11.5,1.72-4.3,.51-8.61,.92-12.93,1.15-.98,.05-1.95,.12-2.93,.19-1.27,.01-2.53,.03-3.8,.04-.41-.02-.82-.06-1.24-.06-2.75,0-5.49,0-8.24,0-.41,0-.82,.04-1.24,.06-1.19,0-2.38-.13-3.58-.03-2.63-.17-5.26-.29-7.88-.52-2.66-.22-5.31-.54-7.97-.82-2.32-.24-4.63-.6-6.93-.95-3.91-.59-7.79-1.31-11.65-2.15-8.8-1.91-17.44-4.39-25.91-7.5-14.29-5.24-27.79-12.07-40.41-20.69-10.13-6.92-19.43-14.84-27.77-23.91-9.53-10.34-17.49-21.8-23.61-34.55-4.6-9.6-7.96-19.64-10.02-30.11-.63-3.19-1.11-6.4-1.47-9.63-.39-3.46-.64-6.93-.72-10.41,.02-.23,.08-.45,.07-.68-.07-1.72-.07-3.44,0-5.16,0-.22-.04-.45-.07-.68,.07-3.06,.26-6.12,.58-9.16,.67-6.36,1.81-12.63,3.46-18.81,4.49-16.8,12.21-31.95,22.63-45.71,8.32-10.98,18-20.56,28.84-28.95,13.41-10.38,28.04-18.54,43.73-24.76,10.29-4.08,20.84-7.24,31.66-9.51,4.27-.9,8.57-1.65,12.89-2.29,4.47-.66,8.96-1.15,13.46-1.5,3.11-.24,6.24-.36,9.36-.53,.37,.02,.74,.06,1.11,.05,3.74-.08,7.48-.08,11.21,0,.41,0,.82-.03,1.23-.05,2.82,.16,5.64,.28,8.46,.48,2.14,.15,4.28,.36,6.41,.58,2.06,.22,4.11,.49,6.17,.74,3.14,.39,6.26,.91,9.37,1.48,5.33,.98,10.62,2.18,15.85,3.59,20.27,5.49,39.23,13.96,56.66,25.88,9.53,6.51,18.32,13.93,26.29,22.35,9.67,10.22,17.8,21.55,24.11,34.21,4.7,9.43,8.2,19.29,10.44,29.62,.83,3.85,1.48,7.73,1.91,11.65,.19,1.79,.42,3.57,.43,5.37,0,.49-.01,.97,0,1.46,0,.3-.03,.61,.21,.85v12.4c-.35,.75-.23,1.53-.2,2.31Zm-172.95,132.51c2.56-.03,5.12-.04,7.68-.15,2.75-.13,5.49-.27,8.23-.48,4.2-.32,8.39-.79,12.57-1.38,4.73-.67,9.43-1.52,14.11-2.54,10.73-2.33,21.19-5.55,31.37-9.71,15.6-6.38,30.09-14.72,43.29-25.34,11.02-8.87,20.72-19.02,28.87-30.68,7.15-10.23,12.81-21.24,16.77-33.15,2.87-8.62,4.74-17.46,5.59-26.52,.34-3.59,.51-7.18,.51-10.77,0-3.75-.15-7.5-.51-11.23-.38-3.96-.93-7.9-1.7-11.8-2.14-10.86-5.72-21.22-10.66-31.1-6.41-12.84-14.73-24.27-24.65-34.51-7.44-7.69-15.61-14.5-24.41-20.53-13.44-9.21-27.89-16.31-43.24-21.57-6.96-2.39-14.03-4.34-21.2-5.92-4.67-1.02-9.38-1.87-14.11-2.54-2.79-.4-5.6-.74-8.41-1.01-3.11-.3-6.22-.54-9.34-.71-3.76-.21-7.53-.31-11.29-.29-4.7,.03-9.41,.17-14.1,.53-3.83,.3-7.65,.67-11.46,1.16-5,.65-9.97,1.5-14.91,2.52-10.6,2.2-20.95,5.28-31.03,9.27-17.6,6.97-33.8,16.39-48.34,28.69-9.83,8.32-18.54,17.71-25.92,28.34-10.47,15.09-17.65,31.61-20.9,49.83-.89,5.02-1.48,10.07-1.69,15.15-.26,6.12-.11,12.24,.58,18.34,.46,4.03,1.08,8.03,1.93,12,2.43,11.28,6.42,21.97,11.83,32.12,6.9,12.93,15.72,24.35,26.15,34.52,8.51,8.3,17.85,15.5,27.92,21.73,12.4,7.67,25.54,13.68,39.36,18.17,7.39,2.41,14.89,4.35,22.51,5.84,5.17,1.02,10.38,1.81,15.62,2.41,4.04,.46,8.09,.81,12.15,1.03,3.61,.19,7.22,.35,10.84,.28Z"/>
  <path class="cls-2" d="M346.27,153c-.03-.78-.15-1.57,.2-2.31v2.3h-.1s-.1,.01-.1,.01Z"/>
  <path class="cls-2" d="M346.47,138.28c-.24-.24-.2-.55-.21-.85,0-.49,0-.97,0-1.46,.07,.03,.14,.03,.21,.01v2.3Z"/>
  <path class="cls-2" d="M172.11,7.98c5.29,0,9.4,.09,13.49,.36,3.04,.2,6.08,.47,9.11,.8,4.49,.49,8.96,1.13,13.41,1.94,14.5,2.65,28.52,6.9,42.02,12.92,11.73,5.23,22.78,11.67,33.05,19.45,10.5,7.96,19.9,17.08,27.97,27.57,7.47,9.7,13.53,20.23,17.98,31.7,2.64,6.81,4.64,13.82,5.97,21.01,.67,3.61,1.14,7.25,1.46,10.91,.44,4.93,.54,9.86,.33,14.79-.23,5.47-.86,10.9-1.88,16.28-3.05,16.12-9.29,30.88-18.27,44.47-7.72,11.69-17.07,21.86-27.75,30.79-12.13,10.12-25.47,18.2-39.86,24.51-10.39,4.56-21.11,8.08-32.14,10.64-4.99,1.16-10.02,2.11-15.08,2.87-2.75,.41-5.52,.75-8.29,1.03-4.72,.48-9.45,.79-14.19,.95-3.61,.12-7.23,.16-10.84,.06-4.03-.11-8.05-.3-12.06-.66-4.69-.42-9.35-.99-14-1.73-10.02-1.6-19.85-3.98-29.49-7.17-13.69-4.54-26.68-10.62-38.89-18.4-10.77-6.86-20.63-14.86-29.44-24.18-9.54-10.09-17.48-21.32-23.53-33.91-4.4-9.15-7.6-18.72-9.54-28.72-.79-4.09-1.34-8.22-1.69-12.38-.37-4.51-.5-9.02-.32-13.53,.46-12.06,2.74-23.75,6.84-35.08,5.05-13.93,12.43-26.48,21.79-37.84,8.26-10.04,17.74-18.74,28.24-26.3,13.58-9.77,28.31-17.25,44.03-22.73,8.12-2.83,16.4-5.07,24.83-6.74,4.47-.89,8.96-1.63,13.48-2.19,3.51-.44,7.03-.82,10.56-1.01,1.95-.11,3.91-.29,5.86-.36,2.67-.09,5.35-.11,6.83-.14Zm1.12,271.54c5.99-.03,11.96-.29,17.93-.84,4.05-.37,8.09-.86,12.1-1.5,5.21-.82,10.37-1.86,15.49-3.12,11.19-2.74,22.03-6.49,32.51-11.33,13.2-6.09,25.46-13.71,36.65-23.09,11.38-9.55,21.2-20.51,29.1-33.22,9.3-14.97,15.26-31.17,17.32-48.8,.46-3.92,.71-7.85,.76-11.79,.06-4.87-.21-9.71-.77-14.55-.49-4.18-1.2-8.33-2.16-12.42-2.4-10.29-6.15-20.06-11.15-29.34-7.07-13.12-16.18-24.59-26.99-34.7-9.86-9.23-20.77-16.95-32.57-23.38-12.43-6.77-25.49-11.89-39.12-15.54-6.52-1.74-13.11-3.11-19.78-4.13-3.31-.51-6.64-.91-9.97-1.25-3.63-.37-7.28-.65-10.92-.79-7.42-.27-14.83-.23-22.24,.32-4.39,.33-8.77,.79-13.13,1.39-4.55,.63-9.07,1.43-13.56,2.41-12.44,2.71-24.49,6.62-36.12,11.88-14.57,6.59-28.02,15.01-40.14,25.57-10.1,8.8-18.9,18.76-26.13,30.12-10.21,16.05-16.55,33.49-18.35,52.57-.34,3.62-.5,7.25-.49,10.89,.01,4.83,.32,9.63,.96,14.42,.57,4.29,1.37,8.53,2.42,12.72,2.88,11.54,7.46,22.36,13.55,32.52,6.68,11.16,14.88,21.06,24.34,29.88,9.37,8.73,19.68,16.13,30.82,22.34,17.88,9.97,36.95,16.47,57.03,19.97,6.24,1.09,12.52,1.84,18.83,2.28,4.58,.32,9.17,.52,13.77,.49Z"/>
  <path class="cls-2" d="M173.95,45.95c3.53-.05,7.7,.15,11.86,.51,15.6,1.32,30.66,4.94,45.07,11.21,10.19,4.43,19.7,10.05,28.4,17.05,8.74,7.04,16.32,15.18,22.42,24.7,5.2,8.11,9.05,16.83,11.32,26.25,.8,3.31,1.37,6.66,1.76,10.04,.53,4.62,.62,9.24,.33,13.87-.45,7.37-1.92,14.54-4.35,21.51-3.23,9.28-7.95,17.73-13.93,25.46-6.8,8.8-14.85,16.24-23.91,22.57-10.46,7.31-21.8,12.81-33.86,16.79-6.52,2.15-13.17,3.8-19.92,4.99-3.67,.65-7.36,1.12-11.07,1.5-7.4,.75-14.8,.85-22.22,.55-4.14-.17-8.26-.56-12.37-1.11-15.98-2.17-31.24-6.74-45.64-14.17-9.68-5-18.61-11.13-26.63-18.59-7.97-7.43-14.71-15.85-19.9-25.52-4-7.44-6.86-15.3-8.49-23.61-.61-3.11-1.02-6.26-1.26-9.43-.26-3.33-.28-6.66-.13-9.98,.21-4.63,.86-9.21,1.89-13.73,2.84-12.47,8.36-23.63,16.03-33.72,6.59-8.67,14.41-16.02,23.22-22.32,10.82-7.75,22.61-13.52,35.19-17.65,6.2-2.04,12.52-3.62,18.93-4.78,3.44-.63,6.91-1.11,10.39-1.49,5.4-.58,10.8-.89,16.89-.87Zm-.72,194.98c3.43-.02,6.85-.15,10.27-.38,3.91-.26,7.8-.68,11.67-1.27,5.74-.86,11.4-2.07,16.99-3.64,11.89-3.34,23.16-8.16,33.69-14.72,9.8-6.1,18.57-13.44,26.06-22.32,6.17-7.32,11.17-15.37,14.79-24.3,3.28-8.1,5.21-16.52,5.71-25.26,.25-4.32,.15-8.64-.33-12.95-.51-4.57-1.38-9.07-2.66-13.48-2.75-9.49-7.11-18.17-12.83-26.15-6.1-8.51-13.41-15.81-21.7-22.1-10.49-7.97-22-13.96-34.36-18.29-9.31-3.27-18.86-5.49-28.64-6.73-3.92-.5-7.86-.87-11.81-1.03-7.15-.29-14.3-.16-21.43,.58-3.18,.33-6.36,.73-9.51,1.26-6.43,1.08-12.76,2.58-18.98,4.55-11.38,3.6-22.13,8.58-32.14,15.19-9.02,5.96-17.11,13.01-24.03,21.41-6.29,7.63-11.31,16.02-14.82,25.33-2.95,7.81-4.63,15.9-5.03,24.26-.18,3.9-.07,7.8,.34,11.69,.5,4.69,1.38,9.3,2.69,13.82,2.64,9.15,6.8,17.56,12.22,25.32,5.8,8.3,12.76,15.47,20.66,21.7,8.76,6.92,18.33,12.42,28.58,16.72,13.75,5.77,28.07,9.09,42.87,10.3,3.9,.32,7.81,.49,11.73,.48Z"/>
  <path class="cls-2" d="M189.66,21.61c-.17,.67-.33,1.33-.5,2-.98,4.01-2.17,7.96-3.28,11.93-.03,.11-.06,.22-.09,.33-.06,.21-.21,.33-.41,.33-.98-.03-1.96-.08-2.93-.12-.34-.02-.41-.27-.46-.55-.3-1.77-.61-3.54-.9-5.31-.34-2.04-.7-4.07-1.02-6.11-.24-1.59-.42-3.18-.63-4.78-.02-.13-.1-.2-.22-.19-.04,0-.1,.12-.1,.18,.04,.96,.09,1.91,.12,2.86,.06,1.72,.14,3.44,.14,5.16,0,1.91-.07,3.83-.12,5.74-.05,1.72-.11,3.44-.18,5.16-.03,.84,.04,.87-.92,.83-.9-.04-1.81-.05-2.71-.09-.49-.02-.56-.12-.54-.65,.03-.96,.06-1.91,.11-2.87,.14-2.9,.29-5.81,.44-8.71,.21-4.01,.41-8.02,.62-12.03,0-.04,0-.08,0-.11,.04-.55,.08-.61,.58-.61,.45,0,.9,.01,1.35,.03,.9,.04,1.81,.07,2.71,.12,.64,.04,.65,.06,.76,.74,.29,1.73,.58,3.47,.86,5.2,.42,2.6,.85,5.21,1.25,7.81,.15,.98,.23,1.97,.36,2.96,.02,.17-.04,.37,.14,.49,.22-.08,.24-.3,.27-.47,.53-3.1,1.53-6.07,2.4-9.08,.65-2.24,1.32-4.47,1.99-6.7,.19-.63,.21-.65,.88-.62,1.35,.05,2.71,.12,4.06,.19,.29,.01,.4,.15,.38,.44-.17,3.17-.34,6.34-.51,9.51-.09,1.8-.19,3.59-.27,5.39-.11,2.33-.21,4.66-.32,6.99-.04,.76-.09,1.53-.15,2.29-.02,.22-.14,.35-.37,.34-.79-.03-1.58-.07-2.37-.1-.41-.02-.83-.03-1.24-.06-.16-.01-.28-.11-.28-.29,0-.31,0-.61,.02-.92,.13-2.25,.26-4.51,.4-6.76,.17-2.63,.41-5.26,.8-7.87,.1-.68,.18-1.36,.27-2.04,.2-.65,.29-1.32,.34-2,0-.11-.01-.24-.17-.22-.05,0-.13,.07-.15,.12-.19,.69-.42,1.36-.43,2.09Z"/>
  <path class="cls-2" d="M260.6,57.66c.52-1.23,1.05-2.45,1.57-3.68,1.35-3.19,2.8-6.34,4.56-9.33,.64-1.08,1.23-2.19,1.84-3.29,.13-.23,.21-.5,.57-.64,1.06,.6,2.17,1.23,3.28,1.87,.13,.08,.2,.23,.12,.4-.1,.2-.22,.4-.33,.6-3.77,6.74-7.54,13.49-11.3,20.23-.09,.17-.19,.33-.28,.5-.14,.25-.33,.27-.56,.14-1.05-.6-2.1-1.18-3.15-1.79-.43-.25-.47-.33-.35-.84,.29-1.23,.59-2.45,.89-3.67,.9-3.67,1.79-7.34,2.72-11,.31-1.22,.69-2.42,1.04-3.63,.14-.39,.42-.74,.24-1.38-.22,.51-.43,.82-.45,1.21-.46,.75-.73,1.58-1.06,2.39-2.01,4.87-4.44,9.52-7.07,14.07-.06,.1-.14,.18-.2,.26-.31,.1-.5-.12-.72-.24-.89-.5-1.77-1-2.66-1.51-.23-.13-.3-.32-.16-.57,.11-.2,.22-.4,.33-.6,3.71-6.64,7.42-13.29,11.14-19.93,.18-.32,.3-.7,.7-.97,1.22,.69,2.46,1.4,3.7,2.11,.15,.09,.19,.23,.18,.39,0,.15-.03,.3-.07,.45-1.27,4.79-2.35,9.64-3.73,14.4-.39,1.35-.8,2.7-1.19,4.06-.29,.38-.31,.85-.45,1.28-.04,.1,.01,.25,.12,.26,.09,0,.23-.08,.26-.16,.2-.45,.44-.89,.5-1.39Z"/>
  <path class="cls-2" d="M21.86,149.91c.25,.2,.53,.12,.78,.13,3.24,.11,6.48,.15,9.7,.45,1.98,.19,3.96,.49,5.94,.75,.75,.1,1.49,.22,2.23,.34,.39,.06,.48,.16,.43,.51-.15,1.18-.32,2.35-.48,3.52-.03,.22-.18,.34-.39,.31-.6-.07-1.19-.16-1.79-.24-5.03-.73-10.05-1.47-15.08-2.2-1.83-.26-3.65-.51-5.48-.77-.15-.02-.3-.04-.45-.07-.69-.13-.73-.18-.63-.9,.15-1.1,.29-2.2,.46-3.29,.1-.66,.13-.69,.75-.78,3.32-.46,6.64-.91,9.95-1.38,3.02-.43,6.06-.69,9.1-.92,.18-.01,.36-.07,.54-.12,.02,0,.03-.06,.05-.09,.04-.1,.01-.15-.08-.16-.22-.02-.45-.05-.67-.05-2.86,.01-5.72-.12-8.58-.25-1.66-.08-3.3-.29-4.94-.52-1.49-.21-2.98-.43-4.47-.65-.19-.03-.37-.05-.56-.1-.19-.05-.36-.16-.33-.39,.16-1.21,.32-2.43,.49-3.64,.03-.23,.2-.3,.41-.27,.9,.12,1.79,.23,2.69,.36,4.66,.67,9.31,1.34,13.97,2.02,2.09,.3,4.17,.6,6.26,.91,.43,.06,.52,.16,.46,.6-.16,1.29-.34,2.58-.51,3.87-.03,.22-.19,.32-.39,.35-.93,.14-1.86,.29-2.79,.43-2.94,.44-5.88,.88-8.82,1.31-2.42,.35-4.85,.66-7.3,.76-.15,0-.3-.03-.47,.16Z"/>
  <path class="cls-2" d="M124.14,28.49c.59,1.81,1.18,3.62,1.77,5.43,1.14,3.52,1.86,7.16,2.69,10.76,.1,.44,.05,.54-.38,.66-1.05,.28-2.11,.55-3.17,.81-.35,.09-.48,0-.56-.37-.34-1.49-.68-2.98-1.01-4.46-1.34-5.99-2.69-11.98-4.01-17.98-.35-1.6-.58-1.24,1.01-1.7,.9-.26,1.82-.47,2.73-.69,.42-.1,.51-.06,.72,.34,.98,1.85,1.94,3.71,2.93,5.55,2.07,3.85,4.04,7.76,5.87,11.74,.09,.25,.16,.5,.26,.74,.06,.14,.17,.26,.34,.19,.12-.05,.1-.2,.07-.3-.1-.32-.17-.66-.4-.92-.62-1.84-1.23-3.69-1.87-5.53-1.17-3.36-1.97-6.82-2.71-10.3-.15-.71-.32-1.42-.46-2.13-.1-.48-.03-.57,.48-.71,.98-.26,1.97-.51,2.96-.75,.44-.11,.54-.05,.64,.39,.3,1.3,.59,2.61,.88,3.91,1.39,6.23,2.77,12.46,4.16,18.68,.04,.19,.1,.37,.13,.56,.1,.57,.07,.62-.52,.78-1.09,.29-2.19,.57-3.28,.85-.43,.11-.51,.07-.73-.31-.08-.13-.15-.27-.22-.4-2.62-4.91-5.37-9.74-7.82-14.75-.02-.03-.04-.06-.06-.1-.2-.82-.63-1.54-.94-2.32-.04-.11-.17-.16-.27-.11-.04,.02-.08,.14-.07,.19,.24,.76,.45,1.53,.83,2.23Z"/>
  <path class="cls-2" d="M303.51,96.92c-2.5,3.33-4.96,6.6-7.39,9.84-.35-.04-.4-.29-.51-.47-.57-.94-1.14-1.89-1.7-2.84-.46-.78-.51-.68,.12-1.48,1.6-2.03,3.2-4.06,4.79-6.09,.68-.87,1.36-1.73,2.04-2.6,.12-.15,.25-.29,.23-.5-.01-.13-.08-.22-.21-.2-.32,.03-.54,.26-.79,.42-2.58,1.64-5.16,3.29-7.75,4.92-.4,.25-.77,.77-1.26,.61-.41-.14-.52-.71-.76-1.1-.48-.78-.94-1.57-1.4-2.35-.15-.24-.08-.43,.15-.58,.25-.16,.51-.33,.76-.49,6.28-4,12.55-7.99,18.83-11.98,1.13-.72,.95-.79,1.66,.39,.86,1.44,1.72,2.88,2.56,4.32,.65,1.13,1.14,2.31,1.36,3.62,.28,1.68-.05,3.21-1.08,4.54-1.33,1.7-3.05,2.81-5.17,3.23-1.4,.28-2.69-.01-3.88-.79-.16-.1-.31-.21-.6-.41Zm-.39-5.84c.36,.83,.84,1.49,1.53,1.98,.75,.53,1.56,.71,2.46,.46,.94-.26,1.72-.77,2.31-1.54,.51-.66,.7-1.42,.54-2.26-.13-.69-.38-1.31-.74-1.9-.23-.38-.33-.42-.72-.17-1.24,.78-2.48,1.58-3.72,2.37-.54,.34-1.07,.69-1.66,1.07Z"/>
  <path class="cls-2" d="M67.43,83.08c-1.02,1.22-1.99,2.38-3.01,3.59-1-.78-1.85-1.63-2.75-2.43-.91-.8-1.8-1.62-2.7-2.43-.9-.81-1.8-1.61-2.72-2.44-.85,.85-1.54,1.76-2.26,2.64-.12,.14-.06,.29,.05,.4,.22,.21,.44,.41,.67,.62,2.11,1.9,4.22,3.8,6.34,5.71,.23,.2,.45,.41,.67,.62,.15,.15,.19,.33,.05,.5-.92,1.11-1.84,2.21-2.82,3.39-6.07-5.46-12.09-10.89-18.1-16.3,.56-.91,2.31-2.99,3.04-3.64,.31,.27,.62,.54,.93,.81,1.78,1.6,3.55,3.2,5.32,4.79,.2,.18,.4,.35,.6,.52,.14,.11,.28,.05,.41-.05,.03-.02,.05-.05,.08-.08,.66-.83,1.42-1.58,2-2.48-.56-.88-1.43-1.44-2.17-2.13-1.3-1.22-2.64-2.39-3.96-3.58-.2-.18-.39-.36-.58-.54-.17-.16-.17-.34-.04-.51,.85-1.02,1.71-2.04,2.56-3.06,.19-.22,.38-.2,.58-.02,.9,.81,1.8,1.62,2.7,2.43,4.79,4.31,9.58,8.62,14.36,12.93,.22,.2,.44,.42,.77,.74Z"/>
  <path class="cls-2" d="M171.81,39.24c-1.5,0-2.93,.02-4.36,.03-.21,0-.35-.1-.42-.3-.13-.36-.27-.72-.39-1.08-1.07-3.1-2.14-6.21-3.22-9.3-.11-.32-.14-.68-.41-.93-.05-.04-.14-.06-.21-.04-.06,.01-.16,.07-.16,.12-.03,.3-.05,.61-.05,.91,0,3.18,0,6.35,0,9.53,0,1.27,.11,1.14-1.17,1.16-.98,.01-1.96,.04-2.94,.05-.29,0-.42-.12-.43-.4-.01-.27,0-.54,0-.8,0-7.5,0-15,0-22.5,0-1.39-.16-1.26,1.28-1.29,1.62-.03,3.24-.08,4.86-.09,.98,0,1.95,.12,2.9,.39,2.46,.7,3.9,2.33,4.32,4.89,.19,1.15,.18,2.29-.04,3.42-.37,1.91-1.33,3.39-3.07,4.29-.13,.07-.27,.14-.4,.21-.16,.09-.19,.24-.14,.39,.09,.29,.2,.58,.3,.86,1.15,3.07,2.3,6.14,3.45,9.22,.13,.35,.33,.68,.31,1.25Zm-9.23-17.72c0,.99,0,1.99,0,2.98,0,.47,.09,.54,.51,.56,.61,.03,1.2-.07,1.77-.29,.97-.39,1.62-1.1,1.9-2.12,.2-.75,.2-1.52,.02-2.27-.22-.95-.8-1.62-1.7-1.99-.64-.26-1.31-.31-1.99-.3-.4,0-.5,.12-.51,.57,0,.96,0,1.91,0,2.87Z"/>
  <path class="cls-2" d="M39.45,107.71h11.78c.13,.26,.03,.43-.04,.61-.42,1.15-.85,2.29-1.25,3.44-.14,.4-.35,.61-.81,.59-2.11-.07-4.21-.1-6.32-.15-1.54-.03-3.09-.06-4.63-.09-.15,0-.3,.02-.44,.06-.05,.01-.11,.11-.11,.18,0,.07,.02,.17,.07,.2,.26,.14,.53,.28,.81,.39,2.8,1.11,5.61,2.21,8.41,3.33,1.38,.55,1.21,.33,.74,1.67-.33,.94-.68,1.86-1.03,2.79-.13,.34-.26,.4-.61,.25-2.03-.8-4.06-1.62-6.09-2.42-5.01-1.99-10.02-3.98-15.03-5.96-1.11-.44-.88-.39-.57-1.28,.56-1.58,1.16-3.15,1.75-4.72,.4-1.08,.88-2.11,1.57-3.03,.84-1.13,1.87-1.98,3.25-2.34,.78-.2,1.57-.22,2.35-.09,1.24,.21,2.4,.65,3.45,1.35,1.64,1.1,2.6,2.62,2.7,4.65,0,.15,.03,.3,.06,.58Zm-3.64,1.63c.08-1.06-.46-2.24-1.68-2.88-.36-.19-.76-.34-1.15-.45-1.07-.28-2,0-2.77,.81-.45,.48-.75,1.05-.99,1.65-.26,.66-.27,.66,.35,.91,1.57,.63,3.14,1.25,4.72,1.87,1.04,.41,1.03,.41,1.35-.68,.12-.41,.18-.82,.17-1.24Z"/>
  <path class="cls-2" d="M243.68,27.55c1.49,.68,2.87,1.25,4.25,1.97-.19,.44-.35,.82-.52,1.2-2.1,4.66-4.22,9.31-6.31,13.97-.33,.73-.62,1.48-.89,2.23-.14,.39-.25,.81-.3,1.22-.11,.78,.19,1.38,.83,1.74,.68,.39,1.39,.31,1.99-.2,.35-.3,.61-.68,.85-1.07,.48-.78,.86-1.61,1.24-2.44,2.11-4.66,4.21-9.31,6.32-13.96,.55-1.21,.4-1.08,1.53-.57,.93,.42,1.86,.84,2.78,1.27,.35,.16,.39,.28,.24,.62-.29,.66-.59,1.32-.89,1.98-1.9,4.2-3.8,8.41-5.7,12.61-.41,.9-.84,1.8-1.37,2.64-.45,.71-.94,1.38-1.54,1.97-1.49,1.46-3.23,2.04-5.28,1.54-1.07-.26-2.07-.69-2.99-1.3-2.04-1.35-2.85-3.28-2.51-5.72,.22-1.57,.75-3.03,1.4-4.46,1.83-4.03,3.65-8.06,5.47-12.09,.45-1,.91-2.01,1.41-3.13Z"/>
  <path class="cls-2" d="M153.41,32.61c-.04,1.5-.11,3.06-.6,4.57-1.07,3.32-4.07,5.1-7.44,4.42-1.15-.23-2.09-.83-2.89-1.69-.7-.76-1.22-1.65-1.65-2.59-.65-1.43-1.09-2.93-1.42-4.46-.6-2.77-.99-5.57-.98-8.41,0-1.38,.16-2.75,.58-4.07,1.07-3.32,4.22-5.12,7.58-4.33,1.31,.31,2.31,1.07,3.13,2.12,.66,.85,1.13,1.8,1.52,2.8,.73,1.82,1.16,3.71,1.52,5.63,.19,1.05,.35,2.11,.46,3.18,.1,.91,.12,1.83,.18,2.82Zm-10.37-8.87c.03,1.11,.14,2.13,.27,3.15,.29,2.31,.65,4.61,1.19,6.87,.18,.78,.4,1.55,.73,2.28,.21,.45,.45,.88,.85,1.2,.68,.54,1.57,.43,2.09-.28,.23-.31,.34-.67,.43-1.05,.25-1.06,.18-2.13,.09-3.19-.22-2.51-.58-5-1.06-7.47-.23-1.16-.48-2.31-.9-3.42-.23-.61-.49-1.2-.98-1.65-.72-.66-1.7-.54-2.23,.29-.25,.39-.38,.83-.43,1.29-.07,.68-.12,1.37-.05,1.98Z"/>
  <path class="cls-2" d="M37.27,137.07c-2.33-.06-4.33-.39-6.31-.88-2.05-.51-4.07-1.12-5.98-2.04-1.06-.51-2.07-1.1-2.95-1.89-1.18-1.04-2.01-2.3-2.17-3.9-.2-2.06,.3-3.95,1.66-5.55,.82-.96,1.89-1.48,3.1-1.77,1.53-.37,3.07-.34,4.61-.16,2.85,.33,5.63,.97,8.33,1.97,1.24,.46,2.44,1.01,3.55,1.75,.76,.5,1.46,1.08,2.04,1.8,1.41,1.74,1.7,3.7,1.12,5.83-.72,2.69-2.54,4.31-5.26,4.67-.67,.09-1.34,.21-1.74,.17Zm.53-4.7c.38-.02,.75-.04,1.13-.08,.18-.02,.37-.09,.54-.16,1.1-.45,1.38-1.58,.63-2.52-.31-.39-.71-.69-1.16-.9-.61-.29-1.23-.57-1.87-.8-2.73-.99-5.55-1.67-8.4-2.23-.96-.19-1.93-.33-2.92-.28-.46,.02-.9,.1-1.31,.29-.91,.43-1.17,1.48-.59,2.32,.26,.38,.63,.65,1.02,.89,.62,.37,1.28,.64,1.95,.89,2.42,.87,4.89,1.5,7.4,2.04,1.18,.26,2.36,.5,3.57,.54Z"/>
  <path class="cls-2" d="M215.66,261.37c.21,.14,.22,.39,.31,.59,.56,1.34,1.44,2.41,2.65,3.19,.38,.25,.77,.49,1.13,.76,.6,.47,.6,.92,.03,1.39-.78,.65-1.7,1.04-2.67,1.12-1.06,.09-2.08,.34-3.08,.67-1.93,.63-3.86,1.29-5.78,1.95-1.4,.48-2.16,.09-2.54-1.35-.11-.4-.16-.82-.25-1.23-.06-.3-.11-.6-.21-.89-.16-.46-.55-.53-.85-.15-.21,.27-.38,.57-.53,.87-.31,.61-.51,1.27-.7,1.93-.43,1.55-1.17,2.89-2.49,3.85-.37,.27-.7,.58-1.05,.86-.25,.19-.51,.14-.72-.05-.74-.7-1.22-1.55-1.34-2.58-.06-.56,.06-1.06,.41-1.5,.41-.5,.82-1,1.22-1.5,.72-.89,.76-1.75,.14-2.72-.25-.39-.59-.69-.91-1.01-.83-.81-.64-2.13,.39-2.67,.37-.19,.76-.33,1.13-.51,.27-.13,.54-.27,.78-.44,.27-.19,.24-.51-.05-.63-.21-.08-.43-.13-.64-.2-.3-.1-.52-.28-.69-.55-.3-.48-.31-.52,.1-.97,.28-.31,.57-.61,.83-.93,.11-.13,.05-.3-.08-.4-.25-.19-.5-.31-.83-.18-.86,.34-1.78,.22-2.68,.32-.14,.02-.3-.01-.44-.05-.15-.04-.28-.17-.22-.34,.22-.65,.4-1.31,1.13-1.61,.34-.14,.66-.37,.94-.62,.48-.42,.54-.75,.24-1.31-.38-.71-.66-1.46-.8-2.25-.02-.1,0-.21,0-.4,.44,.34,.77,.67,1.04,1.1,.68,1.06,1.65,1.3,2.82,.84,1.07-.43,1.93-1.17,2.88-1.78,.37-.24,.56-.63,.64-1.05,.12-.67,.48-1.2,.92-1.68,.34-.38,.54-.82,.74-1.28,.45-1.05,.92-2.09,1.39-3.14,.03-.06,.1-.11,.15-.17,.34-.02,.55,.22,.77,.42,.4,.35,.78,.72,1.15,1.1,.61,.63,1.26,1.22,2.05,1.6,.66,.31,.86,.92,1.1,1.52,.09,.22,.03,.45-.05,.67-.34,.88-.91,1.51-1.87,1.62-1.21,.13-2.22,.69-3.16,1.41-.48,.37-.95,.75-1.43,1.12-.42,.32-.63,.76-.68,1.27-.08,.87,0,1.76-.31,2.61-.04,.1,.06,.21,.19,.22,.11,0,.23,0,.33-.04,.85-.34,1.6-.82,2.15-1.58,.22-.31,.44-.62,.67-.92,.19-.25,.42-.41,.73-.5,.75-.21,.86-.17,1.22,.56,.4,.83,.6,1.73,.8,2.62,.07,.3,0,.61-.05,.91-.08,.45-.14,.91-.22,1.36-.08,.46-.04,.91,.09,1.36,.18,.66,.35,1.32,.53,1.99,.17,.65-.07,1.1-.68,1.35-1.11,.45-2.13,.32-3.07-.44-.35-.28-.72-.56-1.15-.71-.37-.13-.64,.06-.58,.42,.16,.94,.34,1.88,.53,2.81,.05,.26,.19,.5,.31,.74,.15,.31,.41,.44,.74,.39,.19-.02,.37-.06,.55-.11,1.42-.37,2.83-.79,4.2-1.31,.5-.19,.94-.46,1.29-.89,.22-.26,.44-.54,.72-.72,.62-.42,.77-1.02,.67-1.7-.09-.65-.11-1.29-.04-1.94,.02-.15,.05-.3,.08-.45h-.02Zm-12.55-5.18c-.11,0-.15-.02-.19-.01q-1.09,.42-.72,1.54c.15,.44,.08,.61-.34,.8-.17,.07-.36,.11-.54,.16-.77,.21-1.04,1.07-.53,1.7,.24,.3,.53,.53,.91,.64,.46,.14,.63,.48,.6,.97-.03,.38,.01,.77-.02,1.14-.05,.49-.25,.87-.76,1.02-.36,.11-.69,.3-.96,.58-.44,.46-.59,1.07-.2,1.56,.57,.73,.43,1.41,.08,2.13-.18,.38-.38,.75-.55,1.13-.04,.09-.09,.24,.05,.3,.09,.04,.21,.06,.31,.05,.11-.01,.22-.06,.31-.12,1.34-.87,2.49-1.97,3.58-3.13,.65-.7,.9-1.58,.51-2.54-.14-.35-.27-.71-.39-1.07-.13-.39,.03-.69,.44-.73,.79-.07,1.57-.1,2.33,.24,.48,.22,.97,.41,1.47,.57,.54,.18,.79-.01,.75-.61-.04-.72-.15-1.44-.26-2.16-.03-.17-.16-.33-.25-.5-.87,.22-1.71,.41-2.54,.66-.9,.27-1.71,0-2.49-.4-.35-.18-.38-.5-.05-.7,.48-.3,.98-.56,1.47-.85,.16-.1,.15-.26,.04-.39-.12-.14-.26-.28-.42-.38-.67-.44-1.28-.93-1.64-1.61Zm5.72-8.15c-.07,0-.15,0-.22,.03-.44,.21-.74,.96-.58,1.46,.05,.14,.18,.15,.27,.11,.4-.14,.7-.42,.95-.75,.22-.28-.05-.8-.43-.85Z"/>
  <path class="cls-2" d="M79.09,71.35c-.34-.25-.41-.57-.53-.84-3.23-7.11-6.46-14.22-9.69-21.33-.08-.17-.15-.35-.24-.52-.12-.23-.11-.44,.1-.61,1.14-.93,2.29-1.86,3.44-2.79,.16-.13,.34-.13,.51,.02,.14,.13,.29,.25,.43,.37,5.9,5.04,11.8,10.09,17.7,15.13,.17,.15,.33,.3,.48,.44-.01,.31-.24,.41-.41,.55-.97,.79-1.93,1.58-2.91,2.36-.36,.29-.42,.29-.77-.03-.75-.7-1.49-1.41-2.23-2.1-.29-.27-.36-.27-.68-.02-1.03,.83-2.06,1.67-3.09,2.5-.25,.2-.29,.41-.15,.7,.47,.96,.92,1.93,1.39,2.88,.14,.29,.09,.49-.16,.69-1.06,.85-2.12,1.71-3.21,2.6Zm2.77-12.21c-.53-.53-.96-.96-1.38-1.39-2.58-2.56-5.24-5.05-7.53-7.9-.07-.09-.16-.15-.25-.22-.02-.02-.09-.02-.11,0-.04,.04-.11,.12-.1,.15,.1,.2,.21,.41,.33,.6,1.77,2.66,3.3,5.46,4.84,8.27,.42,.77,.85,1.53,1.28,2.29,.16,.28,.32,.32,.53,.14,.76-.62,1.52-1.24,2.38-1.95Z"/>
  <path class="cls-2" d="M210.57,42.72c-.17,0-.35,.03-.53,0-1.22-.22-2.44-.45-3.66-.69-.37-.07-.46-.16-.46-.52,0-.84,.02-1.68,.03-2.53,0-.19,.02-.38,.01-.57,0-.53-.05-.6-.54-.7-.89-.17-1.78-.33-2.66-.49-.37-.07-.74-.15-1.11-.21-.25-.04-.42,.05-.52,.31-.37,.96-.75,1.92-1.14,2.87-.22,.54-.27,.57-.85,.47-1.19-.21-2.37-.45-3.55-.68-.23-.04-.32-.18-.24-.4,.09-.25,.19-.5,.3-.74,3.04-7.2,6.08-14.41,9.13-21.61,.07-.18,.16-.35,.22-.53,.09-.25,.26-.37,.52-.32,1.33,.25,2.66,.5,3.99,.77,.54,.11,.55,.13,.57,.66,.07,2.18,.12,4.36,.18,6.54,.12,4.32,.24,8.65,.35,12.97,.04,1.61,.06,3.21,.09,4.82,0,.19,.02,.38-.12,.57Zm-7.8-9.37c.93,.18,1.82,.32,2.69,.52,.39,.09,.55-.03,.59-.44,.02-.27,.04-.53,.05-.8,.16-3.97,.25-7.94,.85-11.88,.01-.07,.03-.16,0-.22-.02-.06-.1-.09-.16-.12-.02-.01-.08,0-.09,.03-.07,.18-.14,.35-.19,.53-.94,3.78-2.23,7.44-3.45,11.13-.12,.36-.31,.7-.28,1.25Z"/>
  <path class="cls-2" d="M319.24,114.8c-.68-.94-1.38-1.89-2.06-2.85-.19-.26-.16-.39,.09-.56,.34-.24,.71-.44,1.02-.71,.61-.52,.96-1.17,.86-2.01-.14-1.2-1.16-1.99-2.32-1.77-.57,.11-1.06,.37-1.48,.78-.46,.46-.84,.98-1.16,1.55-.47,.83-.85,1.7-1.2,2.59-.45,1.14-.92,2.26-1.56,3.3-.36,.58-.74,1.16-1.17,1.69-1.24,1.51-2.87,2.3-4.74,2.66-1.13,.21-2.24,.19-3.34-.19-1.14-.39-2.09-1.06-2.79-2.05-1.19-1.68-1.71-3.56-1.49-5.63,.12-1.13,.58-2.13,1.29-3.01,.77-.95,1.69-1.71,2.89-2.2,.74,1.19,1.46,2.35,2.15,3.48-.08,.32-.32,.38-.51,.5-.42,.26-.81,.56-1.13,.94-.3,.35-.53,.75-.61,1.21-.29,1.5,.89,2.75,2.39,2.53,1.02-.15,1.83-.68,2.43-1.53,.31-.43,.57-.9,.8-1.38,.46-.96,.88-1.94,1.32-2.92,.53-1.19,1.1-2.35,1.8-3.44,1.25-1.94,2.99-3.09,5.23-3.45,2-.32,3.79,.22,5.12,1.77,1.65,1.93,2.24,4.22,1.67,6.74-.4,1.75-1.79,3.28-3.5,3.97Z"/>
  <path class="cls-2" d="M293.14,190.42c.05-.55-.09-1.06-.31-1.56-.32-.74-.26-1.5-.11-2.26,.18-.87,.7-1.23,1.57-1.07,.96,.18,1.9,.49,2.8,.86,.59,.24,.87,.71,.82,1.36-.08,.97-.39,1.87-.83,2.72-.4,.78-.86,1.53-1.27,2.3-.21,.4-.4,.82-.56,1.25-.05,.12-.04,.36,.04,.42,.12,.09,.26-.04,.36-.16,.65-.74,1.27-1.51,1.83-2.33,.38-.57,.82-1.09,1.25-1.63,.37-.47,.89-.7,1.46-.78,.75-.09,1.5-.11,2.23,.16,.72,.27,1.21,.73,1.4,1.52,.31,1.29,.25,2.5-.6,3.59-.21,.27-.4,.55-.58,.84-.3,.49-.3,.5,.12,.95,.38,.41,.62,.83,.45,1.44-.15,.53,.11,1.03,.59,1.33,.15,.1,.31,.05,.41-.05,.24-.25,.45-.51,.66-.78,.37-.48,.73-.97,1.11-1.45,.39-.48,.87-.83,1.47-1.02,.25-.08,.44-.03,.59,.17,.2,.28,.4,.55,.58,.84,.35,.57,.44,1.09-.09,1.65-.33,.35-.48,.86-.74,1.28-.26,.42-.54,.82-.83,1.23-.16,.22-.15,.43,.05,.61,.17,.15,.35,.29,.54,.41,.68,.44,1.18,1.07,1.63,1.73,.48,.7,.57,1.43,.27,2.28-.61,1.75-1.81,2.97-3.25,4-.27,.19-.61,.29-.93,.4-.46,.15-.94,.29-1.41,.41-.84,.21-1.68,.42-2.37,.99-.08,.07-.21,.09-.32,.09-.05,0-.13-.07-.16-.13-.03-.06-.05-.18-.02-.2,.55-.45,1.09-.91,1.66-1.34,.46-.34,.94-.64,1.42-.93,1.02-.62,1.53-1.66,2.14-2.62,.18-.29,.09-.59-.07-.87-.31-.53-.92-1.13-1.64-1.57-.4,.3-.7,.68-.89,1.15-.28,.71-.62,1.39-.82,2.13-.21,.82-.53,1.04-1.38,1.05-.61,0-1.2-.05-1.75-.35-.39-.22-.5-.54-.19-.82,.96-.87,1.5-1.97,1.89-3.2,.17-.54,.47-1.04,.72-1.55,.24-.48,.32-.94-.06-1.38-.3-.36-.38-.83-.59-1.23-.07-.12-.2-.26-.33-.28-.21-.04-.34,.14-.4,.33-.14,.4-.25,.8-.39,1.2-.21,.57-.43,1.14-.66,1.71-.12,.3-.36,.34-.65,.29-.66-.13-1.04-.52-1.12-1.24-.11-.93,.1-1.83,.28-2.73,.06-.3,.18-.58,.26-.88,.17-.6,.46-1.12,.96-1.51,.3-.23,.57-.5,.84-.77,.4-.39,.82-.63,1.42-.49,.33,.08,.46-.09,.48-.44,.05-.94-.4-1.69-.93-2.4-.19-.25-.5-.34-.81-.32-.5,.03-.97,.14-1.38,.43-.44,.31-.82,.67-1.1,1.14-.93,1.53-1.9,3.04-2.32,4.82-.1,.41-.25,.8-.39,1.2-.74,1.95-.28,3.75,.68,5.49,.15,.27,.33,.51,.47,.78,.3,.61,.21,1.2-.23,1.69-.29,.32-.64,.53-1.04,.66-.72,.24-1.42,.09-1.82-.54-.7-1.09-1.51-2.1-2.23-3.17-.06-.09-.11-.2-.15-.31-.11-.26,0-.45,.26-.5,.04,0,.07-.02,.11-.02,.47,.03,.89-.08,1.23-.44,.38-.4,.58-.88,.66-1.43,.07-.53,.15-1.06,.22-1.59,.08-.57,.19-1.13,.41-1.67,.66-1.66,.9-3.39,.77-5.17-.06-.87-.02-1.75-.39-2.59-.23-.53,0-1.13-.04-1.76-.42,.03-.47,.48-.75,.61-.07,0-.15,0-.22,0Z"/>
  <path class="cls-2" d="M285.11,52.88c1.15,.99,2.21,1.9,3.26,2.83,.39,.34,.39,.39,.08,.86-1.56,2.35-3.12,4.69-4.68,7.03-1.63,2.44-3.29,4.85-5.03,7.2-.13,.18-.24,.39-.33,.59-.02,.04,.04,.15,.09,.17,.06,.03,.17,.04,.21,0,.18-.14,.34-.3,.5-.46,1.52-1.54,3-3.12,4.57-4.6,2.59-2.44,5.25-4.82,7.87-7.23,.2-.18,.4-.38,.68-.13,1.02,.9,2.09,1.74,3.06,2.7-.59,.67-18.03,15.35-19.32,16.26-.41-.13-.67-.48-.98-.74-.81-.68-1.61-1.38-2.41-2.08-.37-.32-.37-.36-.15-.76,.09-.17,.19-.33,.28-.5,3.91-6.75,7.82-13.51,11.74-20.26,.15-.26,.32-.51,.55-.88Zm-7,18.86c-.1,.11-.21,.22-.3,.34-.06,.09-.11,.23,0,.29,.07,.03,.2-.05,.28-.11,.08-.07,.13-.18,.2-.27,.09-.09,.29-.14,.15-.32-.13-.16-.24-.04-.34,.07Z"/>
  <path class="cls-2" d="M93.57,53.16c.44,.5,.79,1,1.3,1.35,.59,.4,1.21,.61,1.92,.43,1-.24,1.63-1.02,1.6-2.07-.03-1.15-.58-2.03-1.51-2.68-.53-.37-1.14-.6-1.75-.78-1.16-.33-2.32-.63-3.48-.95-1.09-.3-2.16-.65-3.18-1.15-2.57-1.25-3.95-3.36-4.21-6.2-.14-1.5,.33-2.89,1.29-4.05,1.4-1.7,3.25-2.58,5.39-2.76,.99-.09,1.94,.22,2.8,.72,.49,.29,.94,.64,1.34,1.04q.95,.95,.03,1.95c-.57,.61-1.14,1.22-1.71,1.83-.11,.12-.27,.14-.39,0-.15-.17-.27-.37-.43-.53-.24-.24-.48-.49-.76-.68-.79-.55-1.67-.52-2.41,.06-.68,.52-.94,1.37-.68,2.27,.18,.61,.54,1.09,1.04,1.46,.58,.44,1.23,.76,1.91,.97,.9,.28,1.81,.51,2.72,.73,1.39,.34,2.78,.71,4.05,1.4,2.94,1.6,4.28,4.17,4.27,7.51,0,1.14-.4,2.18-1.05,3.1-1.23,1.73-2.93,2.75-4.97,3.1-2.14,.36-3.94-.44-5.36-2.04-1.18-1.34-1.07-.99,.07-2.09,.65-.63,1.33-1.24,2-1.85,.03-.02,.07-.04,.18-.1Z"/>
  <path class="cls-2" d="M303.12,78.33c-1.14-1.51-2.21-2.93-3.27-4.33-.12,.03-.21,.03-.26,.07-1.4,1.1-2.79,2.2-4.19,3.3-.23,.18-.21,.37-.05,.58,.8,1.06,1.59,2.13,2.39,3.19,.16,.21,.32,.43,.47,.64,.14,.19,.09,.35-.08,.49-.3,.23-.59,.47-.89,.71-.5,.4-1.01,.8-1.51,1.2-.22,.18-.41,.14-.57-.08-.8-1.06-1.6-2.13-2.4-3.19-.77-1.03-.6-.97-1.61-.18-1.37,1.07-2.73,2.16-4.09,3.24-.61,.49-.61,.5-.12,1.16,.84,1.13,1.69,2.25,2.53,3.37,.25,.33,.24,.42-.06,.66-.82,.67-1.66,1.32-2.49,1.98-.24,.19-.41,.09-.56-.11-.41-.55-.82-1.09-1.23-1.64-1.44-1.92-2.87-3.83-4.31-5.75-.36-.49-.36-.5,.13-.9,2.16-1.72,4.33-3.43,6.49-5.15,3.89-3.08,7.77-6.16,11.66-9.23,.24-.19,.47-.38,.72-.55,.09-.06,.22-.05,.3,.04,.1,.11,.2,.23,.29,.35,1.76,2.34,3.51,4.68,5.26,7.03,.11,.15,.24,.3,.31,.47,.04,.08,.02,.24-.04,.31-.12,.14-.28,.26-.42,.38-.77,.61-1.54,1.22-2.42,1.91Z"/>
  <path class="cls-2" d="M32.48,197.55c-1.02,0-1.85,.07-2.65-.21-.25-.09-.51-.15-.74-.27-.49-.24-.57-.46-.43-1.01,.09-.33,.21-.66,.24-1,.1-1.07,.75-1.82,1.43-2.54,.54-.58,1.16-.49,1.59,.19,.12,.19,.22,.4,.34,.6,.48,.79,1.09,1.46,1.93,1.87,.41,.2,.77,.47,1.13,.74,.57,.44,1.21,.77,1.9,1,.64,.21,1.3,.38,1.95,.56,.22,.06,.45,.08,.66-.01,.06-.03,.13-.09,.15-.15,.02-.06-.01-.14-.03-.2-.01-.03-.05-.05-.09-.06-1.01-.3-1.53-1.2-2.21-1.9-.16-.17-.21-.4-.13-.64,.1-.29,.18-.58,.27-.87,.24-.75,.72-1.2,1.49-1.42,1.26-.37,2.51-.81,3.76-1.22,.11-.04,.21-.07,.32-.11,.34-.14,.41-.29,.27-.61-.13-.28-.29-.54-.39-.83-.12-.32-.2-.65-.27-.99-.05-.26-.07-.57,.16-.75,.23-.18,.5-.06,.74,.08,.23,.13,.46,.27,.68,.4,.58,.35,1.17,.69,1.74,1.06,.31,.2,.62,.24,.97,.16,.92-.21,1.84-.4,2.76-.59,.22-.05,.44-.09,.67-.11,1.54-.13,3.08-.25,4.61-.37,.34-.02,.67-.03,.98,.19,.32,.23,.41,.6,.13,.88-.8,.82-1.67,1.54-2.77,1.93-.6,.21-1.21,.42-1.75,.78-.23,.15-.24,.39-.03,.56,.15,.12,.31,.22,.47,.31,.62,.35,1.25,.7,1.78,1.2,.11,.1,.25,.17,.38,.24,.38,.21,.76,.34,1.12-.05,.11-.12,.25-.19,.39-.08,.14,.11,.1,.28,.07,.43-.12,.53-.39,.99-.65,1.46-.19,.34-.52,.45-.88,.37-.36-.09-.72-.23-1.05-.41-.99-.56-2.04-.98-3.11-1.33-.68-.22-1.33-.52-1.95-.9-.69-.43-1.4-.45-2.17-.22-.91,.28-1.72,.76-2.54,1.23-.16,.09-.32,.22-.42,.37-.13,.19-.18,.43-.04,.65,.14,.22,.38,.26,.6,.17,.55-.24,1.1-.49,1.64-.77,.32-.16,.62-.25,.97-.14,.48,.16,.69,.64,.45,1.1-.09,.16-.22,.31-.33,.46-.23,.3-.48,.59-.7,.9-.29,.42-.23,.71,.24,.9,.46,.19,.86,.47,1.26,.75,.5,.35,1,.67,1.6,.83,.28,.07,.32,.28,.17,.53-.26,.44-.64,.66-1.14,.54-.36-.09-.72-.21-1.07-.36-.79-.35-1.59-.7-2.37-1.08-.6-.3-1.14-.28-1.7,.1-.41,.27-.86,.48-1.28,.73-.82,.48-1.6,1.01-2.27,1.69-1.01,1.03-2.3,1.59-3.61,2.06-.64,.23-1.34,.17-2.01,.05-.15-.03-.29-.09-.42-.15-.46-.21-.89-.48-.91-1.06-.01-.54,.4-.79,.8-1.02,.63-.35,1.28-.65,1.89-1.03,.67-.42,1.32-.88,1.96-1.35,.37-.28,.36-.64,.04-.98-.19-.19-.4-.34-.66-.43-.25-.08-.51-.15-.74-.26-1.08-.51-2.18-.86-3.2-.58Z"/>
  <path class="cls-2" d="M59.88,61.14c1.27,1.41,2.46,2.74,3.65,4.06,.24,.26,.36,.25,.65-.03,.9-.87,1.78-1.77,2.69-2.62,1.01-.94,.74-1.1,1.76,.05,.53,.59,1.06,1.19,1.57,1.75-.03,.36-.27,.5-.45,.68-.87,.85-1.75,1.69-2.62,2.54-.24,.24-.52,.44-.67,.76,.47,.72,3.81,4.45,4.67,5.19,.64-.62,1.3-1.24,1.95-1.86,.63-.6,1.25-1.21,1.87-1.81,.66,.46,2.02,1.93,2.63,2.86-.11,.13-.23,.28-.36,.41-2.12,2.06-4.25,4.13-6.37,6.19-.11,.11-.22,.21-.34,.31-.13,.11-.28,.11-.4,0-.16-.16-.32-.33-.47-.5-5.03-5.59-10.06-11.18-15.1-16.77-.7-.77-.72-.7,.02-1.42,2.12-2.06,4.25-4.13,6.37-6.19,.08-.08,.18-.13,.27-.19,.68,.53,1.91,1.87,2.56,2.81-1.26,1.23-2.53,2.47-3.91,3.81Z"/>
  <path class="cls-2" d="M329.21,147c-3.39,1.28-6.71,2.8-10.25,3.79,.2,.33,.48,.26,.72,.27,3.21,.18,6.31,1.03,9.44,1.64,.58,.11,.57,.14,.62,.75,.08,1.22,.17,2.44,.24,3.66,.01,.22,.06,.46-.09,.66-.23,.06-.44-.03-.66-.09-4.41-1.27-8.83-2.53-13.24-3.82-.59-.17-1.17-.25-1.78-.19-2.06,.2-4.12,.4-6.18,.59-.79,.07-1.57,.15-2.36,.21-.29,.02-.44-.08-.47-.37-.04-.38-.05-.76-.07-1.14-.06-.88-.13-1.75-.19-2.63-.04-.61,.01-.68,.58-.74,1.01-.1,2.02-.18,3.04-.27,1.91-.17,3.82-.36,5.73-.52,.54-.05,1.01-.28,1.48-.52,3.99-1.98,7.97-3.97,11.96-5.95,.24-.12,.47-.24,.71-.35,.34-.16,.52-.08,.55,.26,.1,1.45,.19,2.9,.28,4.35,0,.11-.03,.22-.06,.41Z"/>
  <path class="cls-2" d="M78,233.48c.42-.72,.31-1.5,.05-2.28-.12-.36,0-.67,.27-.93,.41-.4,.89-.7,1.39-.96,.24-.13,.43-.04,.6,.15,.33,.38,.52,.84,.69,1.31,.29,.8,.73,1.51,1.2,2.2,.22,.32,.5,.36,.76,.09,.59-.59,1.19-1.18,1.62-1.91,.37-.63,.96-.95,1.61-1.18,.46-.16,.69-.01,.87,.43,.27,.69,.24,1.43,.41,2.13,.06,.26-.08,.47-.27,.59-1.31,.84-2.29,2.1-3.65,2.87-.56,.32-1.06,.72-1.58,1.11-.33,.25-.64,.54-.93,.83-.25,.25-.24,.46,0,.69,.36,.35,.76,.62,1.24,.76,1.22,.37,1.2,.35,2.22-.37,1.67-1.18,3.36-2.33,5.05-3.47,.82-.55,1.62-1.12,2.29-1.85,.26-.28,.54-.53,.9-.67,.22-.09,.49-.02,.58,.2,.19,.5,.4,1,.51,1.51,.11,.49,.25,.95,.44,1.41,.4,.95-.04,1.74-1.08,1.92-.52,.09-1.02,.25-1.51,.46-.17,.08-.35,.16-.5,.27-.5,.36-.56,.89-.17,1.38,.48,.6,1.09,1.05,1.67,1.54,.47,.4,.48,.39,.92-.14,.15-.18,.37-.18,.44,0,.26,.71,.54,1.43,.76,2.15,.15,.5-.19,.89-.73,.9-.55,.01-1.01-.21-1.46-.52-1.03-.72-1.93-1.59-2.89-2.38-.32-.26-.66-.5-1.01-.73-.44-.29-.92-.33-1.39-.08-.74,.38-1.49,.71-2.28,.98-.74,.25-.87,.9-.37,1.55,.91,1.18,2.08,2.03,3.47,2.45,1.15,.35,1.01,.77,.54,1.54-.2,.32-.45,.61-.68,.92-.24,.31-.58,.49-.93,.62-.46,.16-.89,.07-1.26-.27-.06-.05-.11-.11-.15-.17-.82-1.21-1.92-2.14-2.94-3.17-.43-.43-.79-.92-1.08-1.46-.38-.71-.41-1.37,.13-2.02,.24-.29,.43-.63,.6-.96,.16-.31,.04-.64-.29-.74-.54-.16-1.09-.3-1.64-.38-1.25-.19-2.47-.03-3.68,.31-.54,.15-1.09,.27-1.65,.37-.46,.08-.89-.03-1.24-.4-.39-.41-.82-.79-1.2-1.21-.48-.53-.68-1.18-.61-1.9,.03-.3,.06-.61,.11-.91,.08-.51,.27-.95,.76-1.2,.45-.23,.75-.62,1.1-.97,.73-.74,1.24-.64,1.37,.36,.15,1.15,.87,1.92,1.48,2.78,.2,.29,.47,.36,.79,.26,.78-.22,1.44-.65,1.97-1.27,.07-.08,.13-.22,.11-.31-.18-.58-.36-1.16-.59-1.73-.12-.31-.39-.45-.74-.39-.14,.03-.29,.09-.44-.11Z"/>
  <path class="cls-2" d="M326.68,125.94c.35,.74,.38,1.47,.52,2.17,.61,3.11,1.19,6.23,1.78,9.34,.02,.11,.05,.22,.06,.34,.02,.22-.06,.38-.27,.43-1.1,.25-2.2,.49-3.31,.73-.27,.06-.4-.1-.45-.37-.14-.79-.3-1.58-.45-2.36-.04-.19-.07-.38-.12-.56-.08-.28-.21-.37-.5-.31-.77,.17-1.54,.34-2.31,.51-5.47,1.21-10.95,2.42-16.42,3.63-.15,.03-.29,.09-.44,.11-.29,.05-.43-.03-.49-.31-.07-.34-.13-.67-.2-1.01-.17-.86-.33-1.72-.5-2.59-.1-.56-.09-.74,.53-.87,3.42-.74,6.83-1.51,10.25-2.27,2.79-.62,5.58-1.23,8.37-1.85,.11-.02,.22-.04,.33-.07,.25-.07,.38-.23,.33-.5-.09-.49-.18-.98-.27-1.46-.08-.41-.14-.83-.24-1.24-.12-.47-.13-.61,.4-.73,1.13-.26,2.26-.5,3.39-.75Z"/>
  <path class="cls-2" d="M137.93,251.55c.45-.32,.72-.73,.82-1.31,.15-.87,.78-1.3,1.62-1.12,1.22,.25,2.4-.05,3.58-.24,1.3-.21,2.59-.46,3.89-.7,1.08-.2,2.17-.13,3.26-.13,.31,0,.47,.24,.41,.54-.14,.63-.47,1.15-1.03,1.44-.91,.47-1.68,1.15-2.62,1.57-.62,.27-1.04,.88-1.45,1.42-.29,.39-.54,.81-.93,1.14-.23,.19-.12,.52,.15,.65,.39,.19,.81,.14,1.22,.15,.57,.01,1.12,.11,1.65,.33,.55,.22,.86,.59,.78,1.23-.02,.15-.03,.31-.02,.46,.16,1.85-.8,3.36-1.77,4.56-.29,.36-.54,.73-.8,1.11-.52,.78-1.15,1.41-2.12,1.58-.18,.03-.36,.12-.54,.17-.71,.19-1.16,.68-1.43,1.35-.14,.35-.26,.72-.36,1.09-.2,.74-.48,1.45-.77,2.15-.24,.56-.44,1.14-.6,1.73-.21,.75-.6,1.4-1.03,2.03-.11,.16-.24,.29-.42,.36-.23,.09-.51-.02-.54-.24-.03-.26-.05-.53-.05-.8,.05-2.41,.24-4.81,.84-7.15,.12-.48,.14-.93-.26-1.26-.42-.35-.49-.78-.31-1.23,.28-.72-.03-1.17-.58-1.55-.12-.09-.24-.18-.36-.28-.8-.64-.92-.97-.61-1.98,.33-1.08,.83-2.04,1.81-2.68,.37-.25,.7-.58,1-.92,.43-.51,.97-.7,1.6-.69,.3,0,.6,.04,.9,.02,.36-.01,.5-.29,.6-.59,.09-.27,.14-.57-.12-.73-.66-.44-1.21-1.03-1.95-1.34-.22-.09-.43-.18-.65-.11-.85,.26-1.72,.1-2.58,.21-.08-.07-.16-.14-.24-.21Zm7.83,6.3c-.41,0-.66,.14-.8,.46-.13,.31-.31,.63-.35,.96-.07,.54-.24,1.04-.4,1.54-.1,.32-.31,.69,.02,.96,.3,.24,.64,.02,.96-.08,.31-.1,.52-.29,.63-.6,.23-.65,.55-1.25,.89-1.84,.43-.73,.15-1.23-.7-1.36-.11-.02-.22-.02-.26-.03Z"/>
  <path class="cls-2" d="M98.07,34.86c-.08-.12-.17-.2-.21-.3-.41-1.03-.81-2.06-1.22-3.09-.1-.25-.07-.45,.19-.56,.17-.08,.34-.15,.52-.23,3.16-1.33,6.32-2.67,9.49-4,.1-.04,.21-.08,.32-.12,.45-.17,.52-.14,.7,.25,.02,.03,.02,.07,.04,.11,.35,.89,.7,1.77,1.04,2.66,.22,.57,.18,.64-.34,.87-.8,.35-1.6,.67-2.4,1.02-.41,.18-.45,.28-.28,.71,1.2,3.09,2.41,6.19,3.61,9.28,1.08,2.77,2.17,5.54,3.25,8.32,.11,.28,.21,.57,.31,.86,.08,.22-.02,.38-.21,.46-1.21,.52-2.43,1.03-3.65,1.53-.2,.08-.36-.01-.45-.22-.14-.35-.29-.71-.43-1.06-2.17-5.58-4.35-11.16-6.52-16.74-.1-.25-.19-.5-.3-.74-.12-.28-.23-.33-.53-.2-.59,.24-1.18,.5-1.77,.75-.38,.16-.77,.3-1.16,.46Z"/>
  <path class="cls-2" d="M36.78,83.78c1.11,.61,2.14,1.17,3.16,1.74,.22,.12,.3,.3,.17,.56-.4,.78-.8,1.56-1.19,2.34-.35,.71-.35,.72,.37,1.11,2.68,1.48,5.36,2.94,8.04,4.42,2.65,1.45,5.29,2.91,7.94,4.37,.23,.13,.46,.26,.69,.39,.19,.11,.25,.28,.15,.48-.65,1.29-1.31,2.57-2,3.92-1.25-.6-2.38-1.27-3.53-1.89-1.19-.65-2.38-1.31-3.57-1.96-1.16-.64-2.32-1.27-3.47-1.91-1.19-.66-2.38-1.32-3.57-1.97-1.15-.63-2.31-1.26-3.53-1.93-.72,1.02-1.11,2.18-1.74,3.16-.34,.13-.54-.11-.76-.22-.83-.44-1.66-.9-2.48-1.36-.23-.13-.3-.32-.17-.57,.07-.14,.14-.27,.2-.41,1.65-3.22,3.3-6.44,4.95-9.66,.09-.17,.18-.33,.34-.6Z"/>
  <path class="cls-2" d="M254.11,228.75c.84-.12,1.53,.34,2.12,1.06,.93,1.14,1.45,2.48,1.9,3.87,.12,.36,.19,.74,.32,1.09,.1,.26,.45,.35,.67,.2,.19-.13,.36-.28,.52-.44,.75-.75,1.38-1.62,1.98-2.5,.08-.12,.2-.3,.17-.41-.22-.65,.26-.77,.66-.97,.27-.14,.52-.3,.8-.42,.38-.17,.63-.02,.79,.38,.15,.36,.04,.66-.11,.98-.68,1.45-1.46,2.84-2.3,4.2-.28,.45-.56,.9-.83,1.37-.39,.68-.62,1.39-.26,2.18,.09,.2,.09,.45,.08,.68-.04,1.57,.16,3.12,.47,4.66,.16,.82,.04,1.6-.33,2.34-.43,.85-.85,1.7-1.3,2.54-.32,.61-.74,1.15-1.29,1.57-.7,.54-1.56,.6-2.23-.12-.54-.58-1.12-1.13-1.67-1.7-.25-.26-.26-.56,0-.82,.26-.27,.56-.5,.86-.73,1.07-.83,1.39-2.03,1.59-3.29,.03-.18-.04-.37-.08-.56-.03-.11-.11-.2-.24-.19-.07,0-.16,.03-.2,.08-.18,.24-.35,.5-.53,.74-.16,.21-.33,.42-.52,.6-.5,.48-.7,.49-1.24,.04-.45-.38-.97-.64-1.52-.69-1.17-.11-1.72-.99-2.33-1.81-.16-.22-.08-.55,.16-.7,.22-.14,.46-.25,.71-.34,.6-.22,1.2-.47,1.82-.61,1.31-.31,1.78-1.31,2.02-2.48,.12-.59,.07-1.2-.14-1.8-.39-1.15-.69-2.34-1.25-3.43-.24-.47-.33-1.02-.56-1.49-.43-.89-.45-1.72,.09-2.58,.18-.29,.32-.5,.67-.48,.15,0,.3,0,.57,0Z"/>
  <path class="cls-2" d="M213.36,43.29c.03-.12,.06-.3,.11-.49,1.92-7.46,3.85-14.93,5.77-22.39,.06-.22,.13-.44,.21-.65,.04-.11,.15-.17,.27-.15,.11,.02,.22,.05,.33,.08,1.02,.26,2.04,.52,3.06,.79,1.03,.28,.84,.26,.62,1.17-.44,1.82-.93,3.62-1.4,5.43-1.12,4.36-2.24,8.72-3.36,13.08-.05,.18-.11,.37-.14,.55-.04,.22,.05,.36,.27,.42,.25,.07,.51,.15,.76,.21,1.16,.31,2.33,.61,3.49,.92,.63,.17,.63,.18,.46,.87-.23,.93-.47,1.85-.7,2.77-.07,.28-.24,.36-.5,.3-.91-.24-1.82-.47-2.73-.71-2.04-.54-4.07-1.07-6.11-1.62-.41-.11-.46-.2-.4-.61Z"/>
  <path class="cls-2" d="M277.85,46.97c.11,.02,.19,.02,.24,.06,1.11,.79,2.22,1.58,3.33,2.37,.18,.13,.22,.3,.1,.49-.13,.19-.26,.38-.39,.57-4.41,6.29-8.82,12.59-13.23,18.88-.68,.98-.55,.84-1.44,.21-.96-.67-1.9-1.37-2.81-2.03-.02-.1-.03-.14-.03-.17,0-.04,0-.08,.02-.11,4.56-6.52,9.12-13.03,13.68-19.55,.17-.25,.36-.49,.53-.71Z"/>
  <path class="cls-2" d="M302.68,128.76c-.28-1.52-.54-2.9-.81-4.28-.06-.29,.07-.42,.33-.48,1.25-.28,2.49-.57,3.74-.85,6.16-1.37,12.33-2.73,18.49-4.1,.33-.07,.66-.14,.99-.21,.21-.05,.39,0,.43,.23,.26,1.31,.51,2.62,.74,3.94,.07,.41,0,.49-.47,.59-2.05,.46-4.11,.91-6.16,1.37-5.36,1.19-10.71,2.38-16.07,3.56-.36,.08-.73,.14-1.22,.23Z"/>
  <path class="cls-2" d="M136.52,252.75c.17,.32,.05,.61-.16,.82-.48,.48-.51,1.18-.84,1.73-.14,.23-.07,.53,0,.79,.33,1.28,.17,2.49-.42,3.67-.2,.41-.29,.87-.48,1.28-.34,.77-.63,.9-1.42,.69-.07-.02-.14-.06-.21-.07-1.07-.22-1.39-.51-1.45-1.95-.02-.38,.05-.76,.06-1.14,0-.33,.07-.67-.06-.99-.27,0-.3,.21-.35,.38-.24,.84-.48,1.69-.71,2.53-.23,.82-.81,1.36-1.43,1.86-.35,.28-.7,.2-.97-.18-.13-.18-.25-.39-.32-.6-.19-.55-.5-.92-1.11-.99-.15-.02-.25-.18-.18-.35,.12-.28,.24-.56,.4-.82,.52-.84,.94-1.75,1.58-2.5,.25-.29,.38-.65,.49-1.02,.65-2.19,1.44-4.33,2.04-6.54,.03-.1,.08-.24,.23-.18,.05,.02,.11,.1,.12,.16,.26,1.36,.41,2.72,.14,4.09-.07,.36-.04,.68,.21,.96,.16,.18,.48,.17,.55-.06,.11-.32,.19-.66,.28-.99,.09-.33,.15-.67,.26-1,.16-.48,.46-.54,.87-.22,.25,.2,.42,.43,.44,.76,.02,.31,.13,.59,.3,.85,.2,.31,.47,.4,.76,.18,.3-.22,.58-.49,.86-.73,.17-.14,.28-.37,.53-.42Z"/>
  <path class="cls-2" d="M262.54,239.86c.13-.08,.21-.18,.31-.19,.88-.11,1.64-.52,2.39-.98,.42-.26,.85-.5,1.3-.69,1.04-.43,2.06-.38,3.01,.29,.4,.28,.81,.56,1.16,.9,1.04,.99,.98,2.35-.11,3.28-.2,.17-.42,.32-.64,.46-.88,.56-1.87,.49-2.54-.31-.82-.98-1.89-1.5-3.05-1.87-.65-.21-1.23-.49-1.82-.89Z"/>
  <path class="cls-2" d="M46.42,207.05c0,.73-.01,1.46-.22,2.16-.26,.88-.79,1.57-1.56,2.03-1.03,.61-2.21,.27-2.83-.77-.44-.73-.46-1.52-.36-2.33,.05-.4,.32-.67,.62-.93,.4-.35,.81-.69,1.18-1.07,.44-.45,.75-.94,.52-1.64-.09-.28,.07-.44,.36-.39,.38,.07,.74,.03,1.12-.04,.5-.09,.71,.03,.88,.48,.22,.58,.3,1.18,.3,1.8,0,.23,0,.46,0,.69Z"/>
  <path class="cls-2" d="M287.87,196.62c.37-.02,.63,0,.88,.11,.35,.17,.69,.25,1.07,.05,.28-.14,.53,.04,.66,.28,.4,.73,.75,1.5,.94,2.31,.13,.56-.06,1.07-.54,1.41-.52,.36-1.13,.35-1.6,.02-.91-.64-1.97-.92-2.91-1.46-.36-.21-.72-.4-1.06-.65-.34-.24-.36-.45-.15-.78,.37-.6,.81-1.08,1.61-1.07,.4,0,.77-.32,1.1-.23Z"/>
  <path class="cls-2" d="M292.91,192.77c0,.15,.02,.31,0,.46-.09,.72-.12,1.42,.32,2.07,.21,.32,.06,.68-.15,.95-.34,.44-.84,.63-1.35,.76-.27,.07-.55-.09-.68-.31-.55-.94-1.2-1.82-1.8-2.72-.36-.53-.07-1.06,.53-1.22,.11-.03,.22-.04,.33-.04,.64,0,1.14-.29,1.63-.67,.28-.22,.58-.68,.92-.53,.45,.19,.2,.74,.25,1.14,0,.04,0,.08,0,.11h0Z"/>
  <path class="cls-2" d="M124.14,28.49c-.38-.7-.59-1.48-.83-2.23-.02-.05,.02-.18,.07-.19,.11-.05,.23,0,.27,.11,.3,.78,.74,1.5,.94,2.32-.15,0-.3,0-.45,0Z"/>
  <path class="cls-2" d="M189.66,21.61c.01-.72,.24-1.4,.43-2.09,.01-.05,.09-.12,.15-.12,.16-.02,.18,.12,.17,.22-.05,.68-.14,1.35-.34,2-.14,0-.27,0-.41-.01Z"/>
  <path class="cls-2" d="M260.6,57.66c-.06,.5-.3,.94-.5,1.39-.04,.08-.18,.17-.26,.16-.11,0-.16-.16-.12-.26,.15-.43,.16-.91,.45-1.28,.15,0,.29,0,.44,0Z"/>
  <path class="cls-2" d="M133.02,38.29c.23,.26,.3,.6,.4,.92,.03,.1,.05,.25-.07,.3-.17,.07-.28-.06-.34-.19-.1-.24-.18-.49-.26-.74,.09-.1,.19-.2,.28-.29Z"/>
  <path class="cls-2" d="M293.14,190.42c.07-.01,.15-.02,.22,0,0,.07,0,.15-.03,.22-.06,.17-.12,.36-.31,.42-.13,.04-.08-.3,.12-.63Z"/>
  <path class="cls-2" d="M137.93,251.55c.08,.07,.16,.14,.24,.21-.12,.07-.23,.18-.36,.21-.07,.02-.17-.06-.26-.1,.03-.06,.05-.14,.1-.18,.08-.06,.18-.1,.27-.15Z"/>
  <polygon class="cls-1" points="215.67 261.38 215.62 261.37 215.66 261.37 215.67 261.38"/>
  <path class="cls-2" d="M260.99,43.36c.03-.39,.24-.7,.45-1.21,.18,.64-.1,.99-.24,1.38-.07-.06-.14-.12-.21-.17Z"/>
  <path class="cls-2" d="M278.3,71.98c-.06,.09-.11,.2-.2,.27-.08,.06-.22,.14-.28,.11-.12-.06-.07-.2,0-.29,.09-.12,.2-.23,.3-.34,.06,.08,.13,.16,.19,.24Z"/>
  <path class="cls-2" d="M278.11,71.73c.1-.11,.21-.23,.34-.07,.14,.17-.05,.23-.15,.32-.06-.08-.13-.16-.19-.24Z"/>
  <path class="cls-2" d="M108.81,138.56c3.61,.17,7.22,.36,10.82,.69,5.25,.47,10.47,1.18,15.63,2.28,12.48,2.64,23.77,7.88,33.79,15.91,1.24,.99,2.45,2.03,3.67,3.05,.5,.42,.51,.43,1.04-.01,1.89-1.58,3.84-3.08,5.84-4.52,8.35-6,17.48-10.32,27.33-13.06,4.43-1.23,8.92-2.16,13.47-2.82,3.54-.51,7.09-.89,10.66-1.16,3.61-.27,7.21-.41,10.83-.48,.15,0,.3,0,.45,0,.31,.01,.41,.11,.4,.41-.01,.42-.04,.84-.07,1.26-.13,1.68-.26,3.36-.39,5.03-.2,2.55-.39,5.11-.58,7.66-.09,1.18-.18,2.36-.26,3.55-.26,3.59-.51,7.17-.77,10.76-.08,1.11-.15,2.21-.25,3.32-.07,.8-.11,.84-.88,.84-2.6,0-5.2,0-7.79,0-.3,0-.6,0-.9,0-.52,.02-.56,.04-.63,.59-.05,.42-.07,.84-.1,1.26-.56,7.3-1.71,14.5-3.86,21.51-1.59,5.17-3.71,10.1-6.57,14.68-5.32,8.52-12.59,14.73-21.67,18.76-4.61,2.04-9.41,3.43-14.35,4.34-3.22,.6-6.47,1.01-9.74,1.21-.87,.05-1.73,.01-2.59-.06-5.82-.54-11.56-1.55-17.13-3.4-5.84-1.94-11.27-4.69-16.15-8.51-5.38-4.22-9.67-9.4-12.99-15.41-3.03-5.47-5.11-11.31-6.57-17.4-.96-3.98-1.64-8.01-2.08-12.08-.17-1.6-.36-3.19-.44-4.8-.03-.63-.1-.69-.77-.69-2.64,0-5.27,0-7.91,0-.3,0-.6,0-.9,0-.51-.02-.56-.05-.6-.6-.13-1.6-.26-3.2-.37-4.8-.26-3.74-.51-7.48-.77-11.22-.3-4.27-.6-8.55-.91-12.82-.07-.95-.13-1.91-.2-2.86-.03-.37,.05-.53,.53-.51,1.58,.04,3.16,.07,4.74,.11Zm108.36,61.59c-.15-.01-.23-.04-.3-.03-2.26,.37-4.52,.79-6.76,1.32-7.34,1.73-14.31,4.42-20.86,8.21-5.49,3.17-10.51,6.99-15.2,11.28-.22,.2-.44,.42-.67,.61-.16,.14-.34,.13-.5-.02-.25-.23-.51-.45-.76-.68-3.19-2.87-6.51-5.57-10.01-8.03-5.85-4.11-12.11-7.42-18.91-9.61-4.35-1.41-8.81-2.32-13.34-2.84-.1-.01-.23-.01-.27,.27,.45,.85,.96,1.78,1.44,2.72,2.21,4.29,5.19,7.97,8.64,11.26,3.55,3.4,7.69,5.88,12.19,7.73,6.89,2.82,14.11,3.99,21.48,4.34,.41,.02,.83-.01,1.24-.05,1.05-.11,2.1-.23,3.14-.35,3.82-.45,7.58-1.22,11.26-2.35,8.56-2.62,15.92-7.18,21.85-14.03,1.7-1.95,3.3-3.97,4.51-6.29,.47-.91,1.02-1.79,1.52-2.69,.13-.23,.32-.43,.31-.78Zm-43.98-1.92c.36-.28,.67-.51,.96-.74,2.51-2.02,5.09-3.94,7.74-5.76,5.63-3.86,11.53-7.21,17.86-9.75,4.28-1.71,8.67-3.02,13.22-3.8,2.82-.48,5.66-.79,8.53-.86,.46-.01,.54-.08,.54-.53,0-1.42,0-2.83,0-4.25,0-.08-.01-.15-.03-.23-.03-.17-.14-.27-.31-.26-.19,0-.38,.01-.56,.03-2.88,.34-5.75,.74-8.59,1.3-5.97,1.18-11.75,2.95-17.31,5.44-7.86,3.52-14.88,8.31-21.2,14.21-.17,.16-.32,.32-.49,.47-.37,.33-.41,.33-.76,.04-.15-.12-.28-.25-.43-.38-1.6-1.39-3.26-2.72-4.96-3.98-7.58-5.57-15.8-9.9-24.62-13.07-4.94-1.78-10-3.1-15.2-3.8-1.01-.14-2.02-.2-3.03-.29-.2-.02-.38,.07-.38,.31,0,1.53,0,3.06,0,4.59,0,.22,.13,.35,.34,.37,.15,.02,.3,.02,.45,.04,2.44,.22,4.87,.49,7.28,.92,6.44,1.15,12.64,3.09,18.61,5.8,7.08,3.22,13.61,7.36,19.77,12.11,.84,.65,1.67,1.3,2.58,2.02Zm-47.73-16.8c-.26-.02-.53-.05-.79-.05-.29,0-.42,.11-.38,.41,.17,1.44,.35,2.88,.55,4.32,.06,.41,.18,.52,.59,.56,.94,.1,1.87,.17,2.81,.26,2.63,.25,5.22,.71,7.8,1.28,6.88,1.54,13.39,4.08,19.6,7.44,5.9,3.2,11.39,7.01,16.64,11.21,.95,.76,.76,.75,1.68,.03,.09-.07,.18-.14,.26-.22,4.24-3.39,8.63-6.54,13.28-9.32,5.56-3.34,11.38-6.1,17.58-7.99,5-1.52,10.09-2.46,15.31-2.66,.15,0,.3-.01,.45-.03,.25-.02,.41-.14,.45-.41,.14-.95,.29-1.89,.43-2.84,.08-.57,.17-1.13,.23-1.7,.03-.3-.09-.4-.4-.37-.11,0-.22,.03-.34,.04-4.2,.4-8.35,1.13-12.45,2.14-12.72,3.12-24,9.06-33.77,17.93-.51,.46-1,.93-1.51,1.39-.3,.27-.38,.27-.68,.03-.5-.41-.97-.85-1.47-1.26-10.93-9-23.23-15.23-36.87-18.69-2.96-.75-5.97-1.26-9.01-1.5Zm.47,9.55c-.01,.1-.05,.21-.03,.31,.26,1.47,.65,2.9,1.17,4.3,.1,.28,.28,.45,.57,.47,.26,.02,.53,.04,.79,.05,3.05,.17,6.06,.65,9.03,1.33,6.06,1.38,11.78,3.68,17.26,6.61,6.29,3.36,12.08,7.46,17.57,12.03,.2,.17,.41,.34,.61,.51,.17,.14,.34,.14,.51,0,.2-.17,.41-.34,.61-.51,3.09-2.63,6.3-5.1,9.65-7.37,5.6-3.78,11.5-6.95,17.86-9.22,5.39-1.92,10.92-3.13,16.64-3.42,.15,0,.3-.01,.45-.02,.37-.03,.61-.15,.74-.57,.38-1.24,.8-2.47,1.04-3.75,.05-.25,.19-.5,.07-.77-.33-.17-.67-.07-1-.04-3.89,.41-7.75,1.03-11.56,1.97-12.99,3.19-24.27,9.55-33.98,18.85-.92,.88-.71,.81-1.6,.06-4.58-3.87-9.41-7.38-14.58-10.4-9.61-5.62-19.86-9.26-30.92-10.46-.29-.03-.59-.14-.91,.04Zm35.27-17.34c.22,1.46,.96,2.37,2.11,2.93,1.31,.63,2.68,.69,4.08,.36,1.44-.35,2.48-1.23,3.17-2.55,.27-.51,.46-1.05,.58-1.61,.36-1.67,.33-3.34,.06-5.02-.12-.72-.33-1.41-.67-2.06-.56-1.07-1.41-1.79-2.55-2.13-1.37-.41-2.76-.4-4.12,.06-1.55,.52-2.54,1.61-2.87,3.25-.09,.45-.09,.91-.1,1.37-.02,1.88,1.28,3.33,2.64,3.77,1.56,.5,3.11,.59,4.52-.49,.05-.04,.14-.04,.21-.06,.1,.85-.07,1.73-.46,2.37-.42,.7-1.03,1.12-1.85,1.14-.76,.02-1.4-.24-1.72-1.03-.1-.24-.31-.3-.55-.3-.79,0-1.58,0-2.51,0Zm33.56-6.92c-.16-1.51-.91-2.47-2.19-3.02-.89-.38-1.82-.44-2.77-.4-2.51,.11-4.29,1.55-4.85,4.02-.39,1.69-.4,3.41-.14,5.13,.1,.65,.26,1.27,.52,1.87,.57,1.31,1.53,2.15,2.88,2.54,.96,.28,1.94,.31,2.91,.18,1.95-.26,3.4-1.62,3.86-3.53,.66-2.81-1.02-5.19-3.84-5.42-1.23-.1-2.4,.01-3.47,.95-.11-.94,.11-1.69,.47-2.4,.37-.74,.98-1.16,1.8-1.2,.8-.05,1.5,.15,1.84,1.01,.08,.19,.24,.28,.45,.28,.82,0,1.65,0,2.54,0Zm-11.48,5.09c-.12-.03-.22-.08-.33-.09-.37-.04-.84,.07-1.09-.13-.34-.26-.15-.79-.15-1.2-.02-2.18,0-4.36-.01-6.54,0-.47-.08-.56-.51-.56-.83-.01-1.66,0-2.48-.01-.35,0-.55,.16-.73,.43-.35,.54-.72,1.07-1.09,1.6-1.26,1.85-2.53,3.71-3.79,5.56-.19,.28-.42,.54-.41,.92,.01,.53,0,1.07,.01,1.61,0,.21,.12,.36,.35,.37,.41,.01,.83,.02,1.24,.02,1.28,0,2.56,0,3.84,0,.46,0,.51,.06,.52,.55,.01,.61,0,1.22,.01,1.83,.01,.46,.1,.57,.51,.58,.68,.01,1.35,.02,2.03,0,.41,0,.49-.11,.5-.58,.01-.65,0-1.3,0-1.95,0-.27,.1-.43,.39-.44,.3,0,.6-.01,.9-.02,.23,0,.34-.17,.34-.37,0-.53,.08-1.07-.06-1.6Zm-26.83-1.8c0-1.87,0-3.75,0-5.62,0-.27,0-.54-.02-.8-.01-.17-.13-.27-.3-.28-.53-.01-1.05,0-1.58-.02-.33,0-.54,.05-.64,.46-.2,.87-.87,1.31-1.65,1.58-.53,.19-1.09,.29-1.66,.28-.72-.02-.76,.08-.75,.78,0,.27,0,.54,.02,.8,0,.18,.13,.26,.29,.28,.22,.01,.45,.02,.68,.02,.71,0,1.43,0,2.14,0,.37,0,.45,.11,.47,.48,.01,.23,0,.46,0,.69,0,2.29,0,4.59,0,6.88,0,.31,0,.61,.03,.92,.01,.17,.13,.28,.29,.29,.79,0,1.58,0,2.37,0,.16,0,.26-.15,.27-.31,.02-.23,.02-.46,.02-.69,0-1.91,0-3.82,0-5.74Z"/>
  <path class="cls-2" d="M230.56,122.08c0,3.67,0,7.35,0,11.02,0,.27,0,.54,0,.8-.02,.39-.08,.46-.47,.49-1.01,.07-2.03,.14-3.04,.19-3.16,.15-6.3,.52-9.43,1.01-4.8,.75-9.53,1.87-14.16,3.38-10.85,3.55-20.6,9.1-29.25,16.66-.26,.22-.52,.45-.77,.67-.21,.18-.4,.15-.6-.01-.67-.56-1.34-1.11-2.02-1.66-6.67-5.37-13.86-9.87-21.72-13.24-5.81-2.49-11.81-4.32-18.02-5.45-3.93-.72-7.89-1.2-11.88-1.36-1.02-.04-2.03-.11-3.04-.17-.65-.04-.65-.04-.67-.75,0-.15,0-.31,0-.46,0-7.39,0-14.78,.01-22.16,0-1.36-.16-1.13,1.12-1.57,3.63-1.23,6.97-3.05,10.23-5.05,9.48-5.84,18.13-12.76,25.87-20.83,6.41-6.68,12.06-13.97,17.06-21.79,1.03-1.6,2-3.24,3-4.86,.32-.52,.41-.52,.73,.05,.47,.83,.92,1.67,1.39,2.5,7.26,12.8,16.45,23.94,27.68,33.33,7.36,6.15,15.36,11.3,24,15.39,1.02,.48,2.08,.89,3.13,1.3,1.02,.4,.84,.37,.84,1.34,0,3.75,0,7.5,0,11.25Zm-5.59-.63h0c0-2.56,0-5.13,0-7.69,0-1.3,.07-1.05-.96-1.49-5.18-2.2-10.16-4.81-14.91-7.87-10.75-6.91-19.88-15.6-27.61-25.84-2.78-3.68-5.33-7.51-7.67-11.49-.65-1.11-.55-1.23-1.35,.02-2.25,3.54-4.64,6.97-7.18,10.3-7.19,9.44-15.44,17.78-25.04,24.69-5.82,4.19-11.92,7.9-18.56,10.59-.47,.19-.66,.45-.61,.94,.02,.19,0,.38,0,.57,0,4.9,0,9.8,0,14.7,0,.27,0,.54,0,.8,.02,.45,.09,.52,.53,.55,1.54,.08,3.08,.24,4.61,.41,3.45,.37,6.86,.95,10.24,1.73,13.25,3.03,25.2,8.84,35.82,17.46,.24,.19,.47,.38,.71,.56,.17,.13,.35,.11,.51-.02,.18-.14,.35-.29,.53-.43,1.62-1.25,3.21-2.54,4.86-3.75,6.33-4.63,13.11-8.4,20.44-11.13,7.94-2.96,16.15-4.55,24.61-4.84,.23,0,.45-.02,.68-.03,.23-.01,.33-.17,.34-.38,.02-.31,.01-.61,.01-.92,0-2.49,0-4.98,0-7.46Z"/>
  <path class="cls-2" d="M163.92,168.14c-.03-.66,.01-1.03,.16-1.4,.26-.66,.74-1.04,1.42-1.16,.11-.02,.22-.04,.34-.04,.87-.04,1.69,.08,2.14,.95,.47,.9,.54,1.85,.01,2.74-.53,.9-1.41,1.09-2.37,.96-.91-.13-1.47-.68-1.66-1.63-.05-.22-.05-.46-.04-.41Z"/>
  <path class="cls-2" d="M192.12,172.68c-.02,.11-.05,.41-.13,.7-.27,.99-.89,1.53-1.81,1.61-.94,.08-1.83-.41-2.23-1.24-.17-.34-.26-.71-.28-1.1-.09-1.77,1.47-2.93,3.1-2.32,.89,.34,1.36,1.08,1.36,2.35Z"/>
  <path class="cls-2" d="M178.67,166.13c0,1.88,0,3.51,0,5.14,0,.26-.11,.45-.39,.45-.97,0-1.95,0-2.92,0-.16,0-.26-.18-.19-.32,.05-.1,.11-.2,.17-.29,1-1.52,2.01-3.03,3.02-4.55,.06-.09,.13-.18,.32-.43Z"/>
  <path class="cls-2" d="M181.49,124.53c-.33-.19-.66-.36-.98-.56-2.26-1.45-4.51-2.9-6.75-4.38-.44-.29-.76-.31-1.2-.01-2.3,1.52-4.62,3.01-6.94,4.51-.24,.16-.46,.38-.77,.38-.15-.31,0-.55,.08-.8,.8-2.55,1.59-5.1,2.39-7.64,.07-.22,.13-.44,.19-.66,.04-.16-.02-.31-.14-.41-.23-.19-.48-.37-.73-.54-1.87-1.35-3.75-2.69-5.62-4.04-.3-.21-.58-.44-.87-.66,.19-.3,.44-.21,.64-.21,2.48,0,4.97,0,7.45,0,.26,0,.53-.02,.79,0,.41,.03,.61-.18,.73-.55,.44-1.34,.89-2.68,1.34-4.02,.58-1.74,1.16-3.47,1.74-5.21,.05-.14,.08-.3,.14-.43,.02-.06,.1-.12,.15-.12,.06,0,.16,.05,.17,.1,.24,.68,.48,1.37,.71,2.05,.79,2.35,1.59,4.7,2.38,7.04,.05,.14,.1,.29,.15,.43,.25,.69,.25,.7,.95,.7,1.84,0,3.69,0,5.53,0,.87,0,1.73,0,2.6,0,.18,0,.36,0,.6,.12-.26,.33-.56,.49-.82,.68-1.93,1.4-3.86,2.79-5.79,4.18-.15,.11-.31,.22-.46,.33-.36,.29-.39,.34-.26,.77,.15,.51,.32,1.02,.48,1.53,.68,2.18,1.36,4.37,2.04,6.55,.09,.28,.26,.56,.07,.87l.02-.02Z"/>
  <path class="cls-2" d="M181.48,124.55s.06-.04,.07-.03c.06,.05,.03,.05-.06,.01l-.02,.02Z"/>
</svg>